<mxfile host="app.diagrams.net" modified="2022-04-18T02:23:44.567Z" agent="5.0 (Windows NT 10.0; Win64; x64) AppleWebKit/537.36 (KHTML, like Gecko) Chrome/100.0.4896.60 Safari/537.36" etag="mfj5SA0828fdeRATJ8x1" version="17.4.5" type="github">
  <diagram id="fJxe9dQvch9l1z58G91U" name="Page-1">
    <mxGraphModel dx="1185" dy="662" grid="1" gridSize="10" guides="1" tooltips="1" connect="1" arrows="1" fold="1" page="1" pageScale="1" pageWidth="827" pageHeight="1169" math="0" shadow="0">
      <root>
        <mxCell id="0" />
        <mxCell id="1" parent="0" />
        <mxCell id="Uot6uBbr_DU2w-XWCJvZ-3" style="edgeStyle=orthogonalEdgeStyle;rounded=0;orthogonalLoop=1;jettySize=auto;html=1;exitX=0.5;exitY=1;exitDx=0;exitDy=0;entryX=0.5;entryY=0;entryDx=0;entryDy=0;" edge="1" parent="1" source="Uot6uBbr_DU2w-XWCJvZ-1" target="Uot6uBbr_DU2w-XWCJvZ-2">
          <mxGeometry relative="1" as="geometry" />
        </mxCell>
        <mxCell id="Uot6uBbr_DU2w-XWCJvZ-1" value="开始" style="ellipse;whiteSpace=wrap;html=1;aspect=fixed;" vertex="1" parent="1">
          <mxGeometry x="120" y="120" width="80" height="80" as="geometry" />
        </mxCell>
        <mxCell id="Uot6uBbr_DU2w-XWCJvZ-5" style="edgeStyle=orthogonalEdgeStyle;rounded=0;orthogonalLoop=1;jettySize=auto;html=1;exitX=0.5;exitY=1;exitDx=0;exitDy=0;entryX=0.5;entryY=0;entryDx=0;entryDy=0;" edge="1" parent="1" source="Uot6uBbr_DU2w-XWCJvZ-2" target="Uot6uBbr_DU2w-XWCJvZ-9">
          <mxGeometry relative="1" as="geometry">
            <mxPoint x="160" y="350" as="targetPoint" />
          </mxGeometry>
        </mxCell>
        <mxCell id="Uot6uBbr_DU2w-XWCJvZ-2" value="司机点击到达仓库" style="rounded=1;whiteSpace=wrap;html=1;" vertex="1" parent="1">
          <mxGeometry x="100" y="250" width="120" height="60" as="geometry" />
        </mxCell>
        <mxCell id="Uot6uBbr_DU2w-XWCJvZ-11" style="edgeStyle=orthogonalEdgeStyle;rounded=0;orthogonalLoop=1;jettySize=auto;html=1;exitX=1;exitY=0.5;exitDx=0;exitDy=0;entryX=1;entryY=0.5;entryDx=0;entryDy=0;" edge="1" parent="1" source="Uot6uBbr_DU2w-XWCJvZ-9" target="Uot6uBbr_DU2w-XWCJvZ-2">
          <mxGeometry relative="1" as="geometry">
            <mxPoint x="280" y="400" as="targetPoint" />
          </mxGeometry>
        </mxCell>
        <mxCell id="Uot6uBbr_DU2w-XWCJvZ-12" value="否" style="edgeLabel;html=1;align=center;verticalAlign=middle;resizable=0;points=[];" vertex="1" connectable="0" parent="Uot6uBbr_DU2w-XWCJvZ-11">
          <mxGeometry x="-0.2016" y="-1" relative="1" as="geometry">
            <mxPoint as="offset" />
          </mxGeometry>
        </mxCell>
        <mxCell id="Uot6uBbr_DU2w-XWCJvZ-14" style="edgeStyle=orthogonalEdgeStyle;rounded=0;orthogonalLoop=1;jettySize=auto;html=1;exitX=0.5;exitY=1;exitDx=0;exitDy=0;entryX=0.5;entryY=0;entryDx=0;entryDy=0;" edge="1" parent="1" source="Uot6uBbr_DU2w-XWCJvZ-9" target="Uot6uBbr_DU2w-XWCJvZ-13">
          <mxGeometry relative="1" as="geometry" />
        </mxCell>
        <mxCell id="Uot6uBbr_DU2w-XWCJvZ-15" value="是" style="edgeLabel;html=1;align=center;verticalAlign=middle;resizable=0;points=[];" vertex="1" connectable="0" parent="Uot6uBbr_DU2w-XWCJvZ-14">
          <mxGeometry x="-0.2417" relative="1" as="geometry">
            <mxPoint as="offset" />
          </mxGeometry>
        </mxCell>
        <mxCell id="Uot6uBbr_DU2w-XWCJvZ-9" value="车辆进入电子围栏？" style="rhombus;whiteSpace=wrap;html=1;" vertex="1" parent="1">
          <mxGeometry x="100" y="360" width="120" height="80" as="geometry" />
        </mxCell>
        <mxCell id="Uot6uBbr_DU2w-XWCJvZ-19" style="edgeStyle=orthogonalEdgeStyle;rounded=0;orthogonalLoop=1;jettySize=auto;html=1;exitX=0.5;exitY=1;exitDx=0;exitDy=0;entryX=0.5;entryY=0;entryDx=0;entryDy=0;" edge="1" parent="1" source="Uot6uBbr_DU2w-XWCJvZ-13" target="Uot6uBbr_DU2w-XWCJvZ-17">
          <mxGeometry relative="1" as="geometry" />
        </mxCell>
        <mxCell id="Uot6uBbr_DU2w-XWCJvZ-20" value="是" style="edgeLabel;html=1;align=center;verticalAlign=middle;resizable=0;points=[];" vertex="1" connectable="0" parent="Uot6uBbr_DU2w-XWCJvZ-19">
          <mxGeometry x="-0.2872" y="-1" relative="1" as="geometry">
            <mxPoint as="offset" />
          </mxGeometry>
        </mxCell>
        <mxCell id="Uot6uBbr_DU2w-XWCJvZ-13" value="司机出车检查" style="rounded=1;whiteSpace=wrap;html=1;" vertex="1" parent="1">
          <mxGeometry x="100" y="480" width="120" height="60" as="geometry" />
        </mxCell>
        <mxCell id="Uot6uBbr_DU2w-XWCJvZ-21" style="edgeStyle=orthogonalEdgeStyle;rounded=0;orthogonalLoop=1;jettySize=auto;html=1;exitX=1;exitY=0.5;exitDx=0;exitDy=0;entryX=1;entryY=0.5;entryDx=0;entryDy=0;" edge="1" parent="1" source="Uot6uBbr_DU2w-XWCJvZ-17" target="Uot6uBbr_DU2w-XWCJvZ-13">
          <mxGeometry relative="1" as="geometry" />
        </mxCell>
        <mxCell id="Uot6uBbr_DU2w-XWCJvZ-22" value="否" style="edgeLabel;html=1;align=center;verticalAlign=middle;resizable=0;points=[];" vertex="1" connectable="0" parent="Uot6uBbr_DU2w-XWCJvZ-21">
          <mxGeometry x="-0.1195" y="-2" relative="1" as="geometry">
            <mxPoint as="offset" />
          </mxGeometry>
        </mxCell>
        <mxCell id="Uot6uBbr_DU2w-XWCJvZ-24" style="edgeStyle=orthogonalEdgeStyle;rounded=0;orthogonalLoop=1;jettySize=auto;html=1;exitX=0.5;exitY=1;exitDx=0;exitDy=0;entryX=0.5;entryY=0;entryDx=0;entryDy=0;" edge="1" parent="1" source="Uot6uBbr_DU2w-XWCJvZ-17" target="Uot6uBbr_DU2w-XWCJvZ-23">
          <mxGeometry relative="1" as="geometry" />
        </mxCell>
        <mxCell id="Uot6uBbr_DU2w-XWCJvZ-25" value="是" style="edgeLabel;html=1;align=center;verticalAlign=middle;resizable=0;points=[];" vertex="1" connectable="0" parent="Uot6uBbr_DU2w-XWCJvZ-24">
          <mxGeometry x="-0.5661" y="1" relative="1" as="geometry">
            <mxPoint x="-1" y="13" as="offset" />
          </mxGeometry>
        </mxCell>
        <mxCell id="Uot6uBbr_DU2w-XWCJvZ-17" value="检查项全部合格？" style="rhombus;whiteSpace=wrap;html=1;" vertex="1" parent="1">
          <mxGeometry x="100" y="585" width="120" height="80" as="geometry" />
        </mxCell>
        <mxCell id="Uot6uBbr_DU2w-XWCJvZ-29" style="edgeStyle=orthogonalEdgeStyle;rounded=0;orthogonalLoop=1;jettySize=auto;html=1;exitX=0.5;exitY=1;exitDx=0;exitDy=0;entryX=0.5;entryY=0;entryDx=0;entryDy=0;" edge="1" parent="1" source="Uot6uBbr_DU2w-XWCJvZ-23" target="Uot6uBbr_DU2w-XWCJvZ-28">
          <mxGeometry relative="1" as="geometry" />
        </mxCell>
        <mxCell id="Uot6uBbr_DU2w-XWCJvZ-23" value="仓库账号仓库检查" style="rounded=1;whiteSpace=wrap;html=1;" vertex="1" parent="1">
          <mxGeometry x="100" y="720" width="120" height="60" as="geometry" />
        </mxCell>
        <mxCell id="Uot6uBbr_DU2w-XWCJvZ-27" value="检查项全部合格？" style="rhombus;whiteSpace=wrap;html=1;" vertex="1" parent="1">
          <mxGeometry x="100" y="585" width="120" height="80" as="geometry" />
        </mxCell>
        <mxCell id="Uot6uBbr_DU2w-XWCJvZ-30" style="edgeStyle=orthogonalEdgeStyle;rounded=0;orthogonalLoop=1;jettySize=auto;html=1;exitX=1;exitY=0.5;exitDx=0;exitDy=0;entryX=1;entryY=0.5;entryDx=0;entryDy=0;" edge="1" parent="1" source="Uot6uBbr_DU2w-XWCJvZ-28" target="Uot6uBbr_DU2w-XWCJvZ-23">
          <mxGeometry relative="1" as="geometry" />
        </mxCell>
        <mxCell id="Uot6uBbr_DU2w-XWCJvZ-31" value="否" style="edgeLabel;html=1;align=center;verticalAlign=middle;resizable=0;points=[];" vertex="1" connectable="0" parent="Uot6uBbr_DU2w-XWCJvZ-30">
          <mxGeometry x="0.175" relative="1" as="geometry">
            <mxPoint as="offset" />
          </mxGeometry>
        </mxCell>
        <mxCell id="Uot6uBbr_DU2w-XWCJvZ-33" style="edgeStyle=orthogonalEdgeStyle;rounded=0;orthogonalLoop=1;jettySize=auto;html=1;exitX=0.5;exitY=1;exitDx=0;exitDy=0;entryX=0.5;entryY=0;entryDx=0;entryDy=0;" edge="1" parent="1" source="Uot6uBbr_DU2w-XWCJvZ-28" target="Uot6uBbr_DU2w-XWCJvZ-32">
          <mxGeometry relative="1" as="geometry" />
        </mxCell>
        <mxCell id="Uot6uBbr_DU2w-XWCJvZ-34" value="是" style="edgeLabel;html=1;align=center;verticalAlign=middle;resizable=0;points=[];" vertex="1" connectable="0" parent="Uot6uBbr_DU2w-XWCJvZ-33">
          <mxGeometry x="-0.404" relative="1" as="geometry">
            <mxPoint as="offset" />
          </mxGeometry>
        </mxCell>
        <mxCell id="Uot6uBbr_DU2w-XWCJvZ-28" value="检查项全部合格？" style="rhombus;whiteSpace=wrap;html=1;" vertex="1" parent="1">
          <mxGeometry x="100" y="830" width="120" height="80" as="geometry" />
        </mxCell>
        <mxCell id="Uot6uBbr_DU2w-XWCJvZ-32" value="司机点击离开仓库" style="rounded=1;whiteSpace=wrap;html=1;" vertex="1" parent="1">
          <mxGeometry x="100" y="970" width="120" height="60" as="geometry" />
        </mxCell>
      </root>
    </mxGraphModel>
  </diagram>
</mxfile>
